# xmcd
#
# Track frame offsets: 
#        150
#        33969
#        62635
#        103780
#        148593
#        201494
#        237341
#        277191
#        313564
#
# Disc length: 4596 seconds
#
# Revision: 16
# Processed by: cddbd v1.5.2PL0 Copyright (c) Steve Scherf et al.
# Submitted via: ExactAudioCopyFreeDBPlugin 1.0
#
DISCID=8711f209
DTITLE=Andreas Fröhlich - Eragon [CD03)
DYEAR=2005
DGENRE=Hörbuch
TTITLE0=Ein machtvoller Name
TTITLE1=Der zukünftige Müller
TTITLE2=Fremde in Carvahall (Teil 1)
TTITLE3=Fremde in Carvahall (Teil 2)
TTITLE4=Ein schicksalhafter Flug
TTITLE5=Der Fluch der Unschuld (Teil 1)
TTITLE6=Der Fluch der Unschuld (Teil 2)
TTITLE7=Totenwache (Teil 1)
TTITLE8=Totenwache (Teil 2)
EXTD=
EXTT0=
EXTT1=
EXTT2=
EXTT3=
EXTT4=
EXTT5=
EXTT6=
EXTT7=
EXTT8=
PLAYORDER=
